<svg width="50" height="50" viewBox="0 0 50 50" fill="none" xmlns="http://www.w3.org/2000/svg">
<path d="M40.4004 13.0273C40.166 12.1484 40.0098 11.6602 40.0098 11.6602C39.7559 10.752 39.1113 10.752 38.1543 10.5957L32.9687 9.94141C32.3242 9.83398 32.3242 9.83398 32.0703 9.27734C31.2207 7.36328 30.957 6.25 30.0293 6.25H19.9707C19.043 6.25 18.7891 7.36328 17.9394 9.28711C17.6855 9.83398 17.6855 9.83398 17.041 9.95117L11.8457 10.6055C10.8984 10.7617 10.2148 10.8496 9.96093 11.7578C9.96093 11.7578 9.84374 12.1582 9.5996 13.0273C9.2871 14.1895 9.16015 14.0625 10.2344 14.0625H39.7656C40.8398 14.0723 40.7227 14.1895 40.4004 13.0273Z" fill="black"/>
<path d="M37.0508 17.1875H12.9492C11.3281 17.1875 11.25 17.4023 11.3477 18.623L13.1738 42.3145C13.3301 43.5156 13.4473 43.7598 14.8828 43.7598H35.1172C36.5528 43.7598 36.6699 43.5156 36.8262 42.3145L38.6524 18.623C38.75 17.3926 38.6719 17.1875 37.0508 17.1875Z" fill="black"/>
</svg>
